<svg width="50" height="50" viewBox="0 0 50 50" fill="none" xmlns="http://www.w3.org/2000/svg">
<g clip-path="url(#clip0)">
<path d="M49.4889 13.7084C49.486 13.2107 49.4805 12.7132 49.4668 12.2148C49.4378 11.1308 49.3737 10.037 49.181 8.96458C48.9855 7.8755 48.6659 6.86283 48.1623 5.8735C47.6679 4.90192 47.0215 4.01283 46.2505 3.24183C45.4797 2.47083 44.5906 1.82458 43.6186 1.32992C42.6301 0.826833 41.6173 0.507333 40.5292 0.311833C39.4562 0.118583 38.3624 0.0549167 37.2775 0.0255833C36.7794 0.0120833 36.2819 0.00641667 35.7839 0.00333333C35.1929 0 34.6015 0 34.0107 0H20.9094H15.4818C14.8904 0 14.2996 0 13.7088 0.00341667C13.2107 0.0065 12.7125 0.0121667 12.2152 0.0256667C11.944 0.033 11.6723 0.0425 11.4004 0.0555833C10.5847 0.0949167 9.76778 0.167 8.96345 0.311917C8.14737 0.458583 7.37353 0.674917 6.6207 0.986167C6.36978 1.08983 6.12112 1.20417 5.87395 1.32992C5.14495 1.70092 4.46245 2.15717 3.8417 2.68733C3.63478 2.86408 3.4347 3.049 3.24203 3.24175C2.47087 4.01275 1.82453 4.90183 1.33012 5.87342C0.826448 6.86275 0.507282 7.87542 0.311615 8.9645C0.119115 10.0369 0.0551151 11.1308 0.0259484 12.2148C0.0122818 12.7131 0.00653176 13.2106 0.00328176 13.7083C-0.000468241 14.2995 3.17588e-05 14.8907 3.17588e-05 15.4817V23.55V34.0104C3.17588e-05 34.602 -0.000551571 35.1927 0.00328176 35.7842C0.00653176 36.282 0.0122818 36.7795 0.0259484 37.277C0.0551151 38.3616 0.119032 39.4557 0.311615 40.5276C0.507282 41.6163 0.826448 42.6299 1.33012 43.619C1.82453 44.5908 2.47087 45.4797 3.24203 46.2503C4.01262 47.0217 4.90195 47.6678 5.87403 48.1628C6.86262 48.666 7.87537 48.9851 8.9637 49.1806C10.036 49.3736 11.1307 49.4378 12.2153 49.4668C12.7126 49.48 13.2108 49.4859 13.7089 49.4888C14.2997 49.493 14.8904 49.4924 15.4819 49.4924H34.0107C34.6015 49.4924 35.1929 49.493 35.7839 49.4888C36.2818 49.4859 36.7794 49.48 37.2774 49.4668C38.3623 49.4378 39.4561 49.3735 40.5291 49.1806C41.6172 48.9851 42.63 48.6659 43.6185 48.1628C44.5905 47.6679 45.4796 47.0217 46.2504 46.2503C47.0214 45.4796 47.6679 44.5908 48.1622 43.619C48.6659 42.6299 48.9854 41.6164 49.1809 40.5276C49.3736 39.4557 49.4377 38.3616 49.4667 37.277C49.4804 36.7795 49.4859 36.2821 49.4889 35.7842C49.4927 35.1927 49.4924 34.602 49.4924 34.0104V15.4817C49.4924 14.8907 49.4927 14.2995 49.4889 13.7084V13.7084Z" fill="#F05138"/>
<path d="M39.2173 30.5503C39.2161 30.5488 39.215 30.5477 39.2138 30.5463C39.2685 30.36 39.325 30.1748 39.3729 29.9838C41.4271 21.7997 36.4137 12.1239 27.9299 7.0293C31.6477 12.0692 33.2915 18.1737 31.831 23.5122C31.7008 23.9884 31.5442 24.4454 31.3711 24.8895C31.1833 24.7661 30.9466 24.626 30.6288 24.4508C30.6288 24.4508 22.1897 19.2402 13.0431 10.024C12.8031 9.78205 17.9204 17.3381 23.728 23.4739C20.9919 21.9383 13.3665 16.3902 8.53918 11.972C9.13227 12.961 9.83768 13.9135 10.6131 14.8304C14.6444 19.9428 19.9016 26.2507 26.2 31.0945C21.7747 33.8026 15.5216 34.0132 9.29568 31.0973C7.75577 30.3756 6.3081 29.5049 4.96802 28.5155C7.60343 32.731 11.6624 36.368 16.6024 38.4912C22.4937 41.023 28.3521 40.8513 32.7154 38.5327L32.712 38.5377C32.7319 38.5251 32.7573 38.5114 32.7779 38.4986C32.9571 38.4023 33.1349 38.3042 33.3089 38.2006C35.4053 37.1125 39.5461 36.0085 41.7687 40.333C42.313 41.3913 43.4697 35.7826 39.2173 30.5503V30.5503Z" fill="white"/>
</g>
<defs>
<clipPath id="clip0">
<rect width="50" height="50" fill="white"/>
</clipPath>
</defs>
</svg>
